# xmcd
#
# Track frame offsets:
#       150
#       12535
#       26397
#       39872
#       53625
#       68060
#       80807
#       94097
#       107385
#       120137
#       135372
#       149242
#       163250
#       177395
#       192757
#       207037
#       221900
#       234510
#       247500
#       262065
#       276722
#       288970
#       302662
#
# Disc length: 4222 seconds
#
# Revision: 1
# Processed by: cddbd v1.5.1PL0 Copyright (c) Steve Scherf et al.
# Submitted via: MusiCat 1.1
#
DISCID=47107c17
DTITLE=Kokomo Arnold - Old Original Kokomo Blues
DYEAR=1900
DGENRE=
TTITLE0=Mister Charlie
TTITLE1=Sagefield Woman Blues
TTITLE2=Mean Old Twister
TTITLE3=Monday Morning Blues
TTITLE4=The Twelves
TTITLE5=Salty Dog
TTITLE6=Policy Wheel Blues
TTITLE7=Travelin' Rambler Blues
TTITLE8=The Honeydripper
TTITLE9=Front Door Blues
TTITLE10=Lonesome Southern Blues
TTITLE11=I'll Be Up Someday
TTITLE12=Sissyman Blues
TTITLE13=Backdoor Blues
TTITLE14=Milkcow Blues
TTITLE15=Paddlin' Madeline Blues
TTITLE16=Long and Tall
TTITLE17=Old Original Kokomo Blues
TTITLE18=How Long, How Long Blues
TTITLE19=You Should Not 'A Done It
TTITLE20=Big Leg Mama
TTITLE21=Cause You're Dirty
TTITLE22=Foolman Blues
EXTD=Catfish Records\nKat CD 102\n
EXTT0=
EXTT1=
EXTT2=
EXTT3=
EXTT4=
EXTT5=
EXTT6=
EXTT7=
EXTT8=
EXTT9=
EXTT10=
EXTT11=
EXTT12=
EXTT13=
EXTT14=
EXTT15=
EXTT16=
EXTT17=
EXTT18=
EXTT19=
EXTT20=
EXTT21=
EXTT22=
PLAYORDER=
